<svg width="249" height="56" viewBox="0 0 249 56" fill="none" xmlns="http://www.w3.org/2000/svg">
    <path d="M247.44 20.7736L239.027 31.2077V36.3975H234.111V31.317L225.589 20.5551H231.488L236.621 27.1106L241.648 20.6087L247.44 20.5551V20.7736Z" fill="#17A628"/>
    <path d="M173.468 0.779387L177.128 39.567L183.024 0.772072L199.314 0.882112L205.152 39.4566L208.813 0.779387H222.798L213.129 55.1904L196.964 55.1839L191.113 17.2762L184.999 55.1971L169.085 55.1268L159.265 0.779387H173.468Z" fill="black"/>
    <path d="M49.243 55.1898L49.3512 43.8275L47.1913 47.8391C41.0784 56.8431 27.2618 57.5752 17.8878 53.9316C-2.66699 45.942 -4.62971 16.3772 13.962 4.88579C25.4298 -2.20241 46.4667 -2.06752 55.8546 8.53514C56.0415 8.74619 57.1071 10.0003 56.9934 10.1655L44.7076 17.2516C42.3093 14.4761 38.6543 13.3483 35.093 13.0174C29.4956 12.4972 20.7571 13.0659 17.3605 18.2268C14.2578 22.9412 14.3906 33.6903 17.4698 38.3978C21.0405 43.8567 29.9571 44.3611 35.8578 43.8258C40.3589 43.4176 45.9155 41.7917 47.4949 37.053H34.2747V25.1439H60.9336V55.1898H49.243Z" fill="black"/>
    <path d="M111.301 55.1898H94.9125L87.5375 35.7419H79.5071V55.1898H66.0684V0.779387L91.0383 0.774872C97.3745 1.03149 103.841 3.1247 107.456 8.61204C111.442 14.6621 110.976 24.198 106.163 29.6752C104.089 32.0357 101.321 33.5037 98.4109 34.5947L102.761 39.2016L111.301 55.1898ZM79.5071 11.9237V24.7615L79.884 24.9309C85.7928 24.4531 95.7656 27.2433 95.4638 18.0912C95.331 14.0623 92.952 12.1657 89.0718 11.9191C85.9605 11.7214 82.6396 12.0761 79.5071 11.9237Z" fill="black"/>
    <path d="M134.992 0.046625C147.421 -0.63703 155.866 8.11371 158.362 19.6603C161.958 36.2945 154.721 57.0447 134.737 55.9591C106.011 54.3986 105.815 1.65148 134.992 0.046625ZM135.101 12.9391C132.814 13.093 130.777 13.6251 129.573 15.7143C127.428 19.4357 127.715 30.3062 128.132 34.7033C128.753 41.2598 130.9 43.5284 137.69 43.061C144.026 42.6249 144.332 36.9084 144.524 31.7585C144.674 27.7469 144.848 19.0041 142.828 15.6365C141.248 13.0013 137.907 12.7504 135.101 12.9391Z" fill="black"/>
    <path d="M241.868 11.4866V0.88858H246.784V16.731H240.174L231.27 6.02371V16.731H226.244V0.88858H232.963L241.542 11.3207L241.868 11.4866Z" fill="#17A628"/>
    <path d="M246.343 45.5745L241.324 46.2286C240.586 43.8205 237.705 43.683 235.576 43.8218C232.491 44.0229 230.907 45.9713 231.67 49.0495C232.337 51.738 235.787 52.0444 238.083 51.6826C239.488 51.4611 240.824 50.8284 241.275 49.3926L246.297 50.0513C245.548 55.2667 239.74 56.1944 235.358 55.9591C229.531 55.6462 226.151 52.9823 226.563 46.8271C227.034 39.7962 234.125 38.923 239.811 39.8163C243.062 40.3272 245.867 42.1065 246.343 45.5745Z" fill="#17A628"/>
    </g>
</svg>
