<svg width="126" height="34" viewBox="0 0 126 34" fill="none" xmlns="http://www.w3.org/2000/svg">
<path d="M8 25V1H0V33H3H8H16V25H8Z"/>
<path d="M35 0C31.6377 0 28.3509 0.997033 25.5553 2.86502C22.7597 4.733 20.5807 7.38804 19.2941 10.4944C18.0074 13.6007 17.6707 17.0189 18.3267 20.3165C18.9826 23.6142 20.6017 26.6433 22.9792 29.0208C25.3567 31.3983 28.3858 33.0174 31.6835 33.6734C34.9811 34.3293 38.3993 33.9926 41.5056 32.706C44.612 31.4193 47.267 29.2403 49.135 26.4447C51.003 23.6491 52 20.3623 52 17C52 12.4913 50.2089 8.1673 47.0208 4.97918C43.8327 1.79107 39.5087 0 35 0ZM35 26C33.22 26 31.4799 25.4722 29.9999 24.4832C28.5198 23.4943 27.3663 22.0887 26.6851 20.4442C26.0039 18.7996 25.8257 16.99 26.1729 15.2442C26.5202 13.4984 27.3774 11.8947 28.636 10.636C29.8947 9.37737 31.4984 8.5202 33.2442 8.17293C34.99 7.82567 36.7996 8.0039 38.4442 8.68508C40.0887 9.36627 41.4943 10.5198 42.4832 11.9999C43.4722 13.4799 44 15.22 44 17C44 19.3869 43.0518 21.6761 41.364 23.364C39.6761 25.0518 37.387 26 35 26Z"/>
<path d="M109 0C105.638 0 102.351 0.997033 99.5553 2.86502C96.7597 4.733 94.5807 7.38804 93.2941 10.4944C92.0074 13.6007 91.6707 17.0189 92.3267 20.3165C92.9826 23.6142 94.6017 26.6433 96.9792 29.0208C99.3567 31.3983 102.386 33.0174 105.683 33.6734C108.981 34.3293 112.399 33.9926 115.506 32.706C118.612 31.4193 121.267 29.2403 123.135 26.4447C125.003 23.6491 126 20.3623 126 17C126 12.4913 124.209 8.1673 121.021 4.97918C117.833 1.79107 113.509 0 109 0ZM109 26C107.22 26 105.48 25.4722 104 24.4832C102.52 23.4943 101.366 22.0887 100.685 20.4442C100.004 18.7996 99.8257 16.99 100.173 15.2442C100.52 13.4984 101.377 11.8947 102.636 10.636C103.895 9.37737 105.498 8.5202 107.244 8.17293C108.99 7.82567 110.8 8.0039 112.444 8.68508C114.089 9.36627 115.494 10.5198 116.483 11.9999C117.472 13.4799 118 15.22 118 17C118 19.3869 117.052 21.6761 115.364 23.364C113.676 25.0518 111.387 26 109 26Z"/>
<path d="M88.9497 16H71.9997V22H79.4821C78.4094 23.6054 76.8489 24.8234 75.0309 25.4739C73.213 26.1244 71.234 26.173 69.3863 25.6125C67.5386 25.052 65.9202 23.9122 64.7699 22.3613C63.6197 20.8105 62.9988 18.9308 62.9988 17C62.9988 15.0692 63.6197 13.1895 64.7699 11.6387C65.9202 10.0878 67.5386 8.94799 69.3863 8.38751C71.234 7.82704 73.213 7.87564 75.0309 8.52614C76.8489 9.17665 78.4094 10.3946 79.4821 12H88.2497C86.9895 7.89859 84.2255 4.42515 80.5118 2.27611C76.7982 0.12707 72.4094 -0.538705 68.2255 0.412273C64.0415 1.36325 60.3718 3.86068 57.9519 7.40383C55.532 10.947 54.541 15.2739 55.1775 19.5171C55.8139 23.7603 58.0309 27.606 61.3838 30.2832C64.7367 32.9605 68.9778 34.2713 73.2566 33.9528C77.5354 33.6344 81.5357 31.7103 84.4554 28.5662C87.3751 25.4222 88.9983 21.2906 88.9997 17C88.9997 16.6624 88.9686 16.3327 88.9497 16Z"/>
</svg>
